<svg width="36" height="37" viewBox="0 0 36 37" fill="none" xmlns="http://www.w3.org/2000/svg">
<rect x="0.67646" y="1.46533" width="35.201" height="35.201" rx="8.18627" fill="white"/>
<path d="M12.653 22.8565V21.6646H15.0368V30.0195H13.7188V22.8565H12.653ZM18.2414 25.653C17.4468 25.2557 17.0494 24.6291 17.0494 23.7734C17.0494 23.3608 17.1526 22.9826 17.3589 22.6388C17.5652 22.295 17.8746 22.0237 18.2872 21.8251C18.6998 21.6188 19.2041 21.5156 19.8 21.5156C20.3884 21.5156 20.8888 21.6188 21.3014 21.8251C21.7216 22.0237 22.0349 22.295 22.2412 22.6388C22.4475 22.9826 22.5506 23.3608 22.5506 23.7734C22.5506 24.2013 22.4398 24.5795 22.2183 24.908C22.0043 25.2289 21.7178 25.4772 21.3587 25.653C21.7942 25.8134 22.138 26.077 22.3902 26.4438C22.6423 26.8029 22.7684 27.2269 22.7684 27.7159C22.7684 28.2125 22.6423 28.6519 22.3902 29.0339C22.138 29.4159 21.7866 29.7101 21.3358 29.9164C20.885 30.1227 20.3731 30.2258 19.8 30.2258C19.227 30.2258 18.7151 30.1227 18.2643 29.9164C17.8211 29.7101 17.4735 29.4159 17.2214 29.0339C16.9692 28.6519 16.8432 28.2125 16.8432 27.7159C16.8432 27.2193 16.9692 26.7914 17.2214 26.4323C17.4735 26.0732 17.8135 25.8134 18.2414 25.653ZM21.3014 23.9339C21.3014 23.506 21.1677 23.1774 20.9003 22.9482C20.6328 22.719 20.2661 22.6044 19.8 22.6044C19.3416 22.6044 18.9787 22.719 18.7113 22.9482C18.4438 23.1774 18.3101 23.5098 18.3101 23.9453C18.3101 24.3273 18.4477 24.6406 18.7227 24.8851C19.0054 25.122 19.3645 25.2404 19.8 25.2404C20.2355 25.2404 20.5946 25.1181 20.8773 24.8736C21.16 24.6291 21.3014 24.3159 21.3014 23.9339ZM19.8 26.226C19.2958 26.226 18.8832 26.3521 18.5623 26.6042C18.249 26.8487 18.0924 27.204 18.0924 27.6701C18.0924 28.1056 18.2452 28.4609 18.5508 28.7359C18.8564 29.0033 19.2728 29.1371 19.8 29.1371C20.3196 29.1371 20.7284 28.9995 21.0263 28.7245C21.332 28.4494 21.4848 28.0979 21.4848 27.6701C21.4848 27.2116 21.3281 26.8564 21.0149 26.6042C20.7093 26.3521 20.3043 26.226 19.8 26.226Z" fill="#2398F6"/>
<path d="M0.67646 9.6516C0.67646 5.13045 4.34158 1.46533 8.86273 1.46533H27.6912C32.2123 1.46533 35.8774 5.13045 35.8774 9.65161V14.5634H0.67646V9.6516Z" fill="#2398F6"/>
<path d="M15.2087 11.647H14.0888L10.7194 6.54856V11.647H9.5995V4.8098H10.7194L14.0888 9.89838V4.8098H15.2087V11.647ZM19.0272 11.7354C18.5163 11.7354 18.0546 11.6208 17.6421 11.3916C17.2295 11.1558 16.9053 10.8283 16.6695 10.4092C16.4338 9.98352 16.3159 9.49235 16.3159 8.93568C16.3159 8.38556 16.437 7.89766 16.6793 7.47197C16.9217 7.04629 17.2524 6.71884 17.6715 6.48962C18.0907 6.2604 18.5589 6.1458 19.0763 6.1458C19.5937 6.1458 20.0619 6.2604 20.4811 6.48962C20.9002 6.71884 21.2309 7.04629 21.4732 7.47197C21.7155 7.89766 21.8367 8.38556 21.8367 8.93568C21.8367 9.4858 21.7123 9.9737 21.4634 10.3994C21.2145 10.8251 20.874 11.1558 20.4418 11.3916C20.0161 11.6208 19.5445 11.7354 19.0272 11.7354ZM19.0272 10.7629C19.3153 10.7629 19.5838 10.6941 19.8327 10.5566C20.0881 10.419 20.2944 10.2127 20.4516 9.93768C20.6088 9.66262 20.6873 9.32862 20.6873 8.93568C20.6873 8.54274 20.612 8.21201 20.4614 7.9435C20.3108 7.66844 20.111 7.46215 19.8622 7.32462C19.6133 7.18709 19.3448 7.11833 19.0566 7.11833C18.7685 7.11833 18.5 7.18709 18.2511 7.32462C18.0088 7.46215 17.8156 7.66844 17.6715 7.9435C17.5274 8.21201 17.4554 8.54274 17.4554 8.93568C17.4554 9.51854 17.6028 9.97042 17.8975 10.2913C18.1987 10.6057 18.5753 10.7629 19.0272 10.7629ZM25.0362 10.645L26.5686 6.23421H27.7573L25.6944 11.647H24.3584L22.3052 6.23421H23.5037L25.0362 10.645Z" fill="white"/>
</svg>
