<svg width="103" height="91" viewBox="0 0 103 91" fill="none" xmlns="http://www.w3.org/2000/svg">
<rect y="0.515625" width="103" height="90" rx="10" fill="#F5F5F5"/>
<g clip-path="url(#clip0_1_137)">
<path d="M65.5833 17.1821H56.9167V19.3488H65.5833V42.0988H56.9167V44.2655H67.75V19.3488C67.75 18.7742 67.5217 18.2231 67.1154 17.8167C66.7091 17.4104 66.158 17.1821 65.5833 17.1821Z" fill="#444444"/>
<path d="M53.5367 11.7656H38.63C38.0209 11.7656 37.4367 12.0076 37.006 12.4383C36.5753 12.869 36.3333 13.4532 36.3333 14.0623V44.2656H55.8333V14.0623C55.8333 13.4532 55.5914 12.869 55.1607 12.4383C54.73 12.0076 54.1458 11.7656 53.5367 11.7656ZM53.6667 42.099H50.4167V38.849H41.75V42.099H38.5V14.0623C38.5 14.0452 38.5034 14.0283 38.5099 14.0125C38.5164 13.9968 38.526 13.9824 38.5381 13.9704C38.5502 13.9583 38.5645 13.9487 38.5803 13.9422C38.596 13.9357 38.6129 13.9323 38.63 13.9323H53.5367C53.5537 13.9323 53.5707 13.9357 53.5864 13.9422C53.6022 13.9487 53.6165 13.9583 53.6286 13.9704C53.6407 13.9824 53.6502 13.9968 53.6568 14.0125C53.6633 14.0283 53.6667 14.0452 53.6667 14.0623V42.099Z" fill="#444444"/>
<path d="M40.6667 17.1821H42.8333V19.3488H40.6667V17.1821Z" fill="#444444"/>
<path d="M45 17.1821H47.1667V19.3488H45V17.1821Z" fill="#444444"/>
<path d="M49.3333 17.1821H51.5V19.3488H49.3333V17.1821Z" fill="#444444"/>
<path d="M40.6667 22.5991H42.8333V24.7658H40.6667V22.5991Z" fill="#444444"/>
<path d="M45 22.5991H47.1667V24.7658H45V22.5991Z" fill="#444444"/>
<path d="M49.3333 22.5991H51.5V24.7658H49.3333V22.5991Z" fill="#444444"/>
<path d="M40.6667 28.0156H42.8333V30.1823H40.6667V28.0156Z" fill="#444444"/>
<path d="M45 28.0156H47.1667V30.1823H45V28.0156Z" fill="#444444"/>
<path d="M49.3333 28.0156H51.5V30.1823H49.3333V28.0156Z" fill="#444444"/>
<path d="M40.6667 33.4321H42.8333V35.5988H40.6667V33.4321Z" fill="#444444"/>
<path d="M45 33.4321H47.1667V35.5988H45V33.4321Z" fill="#444444"/>
<path d="M49.3333 33.4321H51.5V35.5988H49.3333V33.4321Z" fill="#444444"/>
<path d="M56.9167 22.5991H59.0833V24.7658H56.9167V22.5991Z" fill="#444444"/>
<path d="M61.25 22.5991H63.4167V24.7658H61.25V22.5991Z" fill="#444444"/>
<path d="M56.9167 28.0156H59.0833V30.1823H56.9167V28.0156Z" fill="#444444"/>
<path d="M61.25 28.0156H63.4167V30.1823H61.25V28.0156Z" fill="#444444"/>
<path d="M56.9167 33.4321H59.0833V35.5988H56.9167V33.4321Z" fill="#444444"/>
<path d="M61.25 33.4321H63.4167V35.5988H61.25V33.4321Z" fill="#444444"/>
</g>
<path d="M36.3584 57.4062V64.5156H35.416V57.4062H36.3584ZM39.3369 60.6045V61.376H36.1533V60.6045H39.3369ZM39.8203 57.4062V58.1777H36.1533V57.4062H39.8203ZM43.7559 63.6123V60.8926C43.7559 60.6842 43.7135 60.5036 43.6289 60.3506C43.5475 60.1943 43.4238 60.0739 43.2578 59.9893C43.0918 59.9046 42.8867 59.8623 42.6426 59.8623C42.4147 59.8623 42.2145 59.9014 42.042 59.9795C41.8727 60.0576 41.7393 60.1602 41.6416 60.2871C41.5472 60.4141 41.5 60.5508 41.5 60.6973H40.5967C40.5967 60.5085 40.6455 60.3213 40.7432 60.1357C40.8408 59.9502 40.9808 59.7826 41.1631 59.6328C41.3486 59.4798 41.57 59.3594 41.8271 59.2715C42.0876 59.1803 42.3773 59.1348 42.6963 59.1348C43.0804 59.1348 43.4189 59.1999 43.7119 59.3301C44.0081 59.4603 44.2393 59.6572 44.4053 59.9209C44.5745 60.1813 44.6592 60.5085 44.6592 60.9023V63.3633C44.6592 63.5391 44.6738 63.7262 44.7031 63.9248C44.7357 64.1234 44.7829 64.2943 44.8447 64.4375V64.5156H43.9023C43.8568 64.4115 43.821 64.2731 43.7949 64.1006C43.7689 63.9248 43.7559 63.762 43.7559 63.6123ZM43.9121 61.3125L43.9219 61.9473H43.0088C42.7516 61.9473 42.5221 61.9684 42.3203 62.0107C42.1185 62.0498 41.9492 62.11 41.8125 62.1914C41.6758 62.2728 41.5716 62.3753 41.5 62.499C41.4284 62.6195 41.3926 62.7611 41.3926 62.9238C41.3926 63.0898 41.43 63.2412 41.5049 63.3779C41.5798 63.5146 41.6921 63.6237 41.8418 63.7051C41.9948 63.7832 42.182 63.8223 42.4033 63.8223C42.68 63.8223 42.9242 63.7637 43.1357 63.6465C43.3473 63.5293 43.515 63.3861 43.6387 63.2168C43.7656 63.0475 43.834 62.8831 43.8438 62.7236L44.2295 63.1582C44.2067 63.2949 44.1449 63.4463 44.0439 63.6123C43.943 63.7783 43.8079 63.9378 43.6387 64.0908C43.4727 64.2406 43.2741 64.3659 43.043 64.4668C42.8151 64.5645 42.5579 64.6133 42.2715 64.6133C41.9134 64.6133 41.5993 64.5433 41.3291 64.4033C41.0622 64.2633 40.8538 64.0762 40.7041 63.8418C40.5576 63.6042 40.4844 63.3389 40.4844 63.0459C40.4844 62.7627 40.5397 62.5137 40.6504 62.2988C40.7611 62.0807 40.9206 61.9001 41.1289 61.7568C41.3372 61.6104 41.5879 61.4997 41.8809 61.4248C42.1738 61.3499 42.501 61.3125 42.8623 61.3125H43.9121ZM48.1943 63.8711C48.4092 63.8711 48.6077 63.8271 48.79 63.7393C48.9723 63.6514 49.1221 63.5309 49.2393 63.3779C49.3564 63.2217 49.4232 63.0443 49.4395 62.8457H50.2988C50.2826 63.1582 50.1768 63.4495 49.9814 63.7197C49.7894 63.9867 49.5371 64.2031 49.2246 64.3691C48.9121 64.5319 48.5687 64.6133 48.1943 64.6133C47.7972 64.6133 47.4505 64.5433 47.1543 64.4033C46.8613 64.2633 46.6172 64.0713 46.4219 63.8271C46.2298 63.583 46.085 63.3031 45.9873 62.9873C45.8929 62.6683 45.8457 62.3314 45.8457 61.9766V61.7715C45.8457 61.4167 45.8929 61.0814 45.9873 60.7656C46.085 60.4466 46.2298 60.165 46.4219 59.9209C46.6172 59.6768 46.8613 59.4847 47.1543 59.3447C47.4505 59.2048 47.7972 59.1348 48.1943 59.1348C48.6077 59.1348 48.9691 59.2194 49.2783 59.3887C49.5876 59.5547 49.8301 59.7826 50.0059 60.0723C50.1849 60.3587 50.2826 60.6842 50.2988 61.0488H49.4395C49.4232 60.8307 49.3613 60.6338 49.2539 60.458C49.1497 60.2822 49.0065 60.1423 48.8242 60.0381C48.6452 59.9307 48.4352 59.877 48.1943 59.877C47.9176 59.877 47.6849 59.9323 47.4961 60.043C47.3105 60.1504 47.1624 60.2969 47.0518 60.4824C46.9443 60.6647 46.8662 60.8682 46.8174 61.0928C46.7718 61.3141 46.749 61.5404 46.749 61.7715V61.9766C46.749 62.2077 46.7718 62.4355 46.8174 62.6602C46.863 62.8848 46.9395 63.0882 47.0469 63.2705C47.1576 63.4528 47.3057 63.5993 47.4912 63.71C47.68 63.8174 47.9144 63.8711 48.1943 63.8711ZM52.2959 59.2324V64.5156H51.3877V59.2324H52.2959ZM51.3193 57.8311C51.3193 57.6846 51.3633 57.5609 51.4512 57.46C51.5423 57.359 51.6758 57.3086 51.8516 57.3086C52.0241 57.3086 52.1559 57.359 52.2471 57.46C52.3415 57.5609 52.3887 57.6846 52.3887 57.8311C52.3887 57.971 52.3415 58.0915 52.2471 58.1924C52.1559 58.29 52.0241 58.3389 51.8516 58.3389C51.6758 58.3389 51.5423 58.29 51.4512 58.1924C51.3633 58.0915 51.3193 57.971 51.3193 57.8311ZM54.7275 57.0156V64.5156H53.8193V57.0156H54.7275ZM57.1592 59.2324V64.5156H56.251V59.2324H57.1592ZM56.1826 57.8311C56.1826 57.6846 56.2266 57.5609 56.3145 57.46C56.4056 57.359 56.5391 57.3086 56.7148 57.3086C56.8874 57.3086 57.0192 57.359 57.1104 57.46C57.2048 57.5609 57.252 57.6846 57.252 57.8311C57.252 57.971 57.2048 58.0915 57.1104 58.1924C57.0192 58.29 56.8874 58.3389 56.7148 58.3389C56.5391 58.3389 56.4056 58.29 56.3145 58.1924C56.2266 58.0915 56.1826 57.971 56.1826 57.8311ZM60.8213 59.2324V59.9258H57.9648V59.2324H60.8213ZM58.9316 57.9482H59.835V63.207C59.835 63.3861 59.8626 63.5212 59.918 63.6123C59.9733 63.7035 60.0449 63.7637 60.1328 63.793C60.2207 63.8223 60.3151 63.8369 60.416 63.8369C60.4909 63.8369 60.569 63.8304 60.6504 63.8174C60.735 63.8011 60.7985 63.7881 60.8408 63.7783L60.8457 64.5156C60.7741 64.5384 60.6797 64.5596 60.5625 64.5791C60.4486 64.6019 60.3102 64.6133 60.1475 64.6133C59.9261 64.6133 59.7227 64.5693 59.5371 64.4814C59.3516 64.3936 59.2035 64.2471 59.0928 64.042C58.9854 63.8337 58.9316 63.5537 58.9316 63.2021V57.9482ZM63.3652 63.9688L64.835 59.2324H65.8018L63.6826 65.3311C63.6338 65.4613 63.5687 65.6012 63.4873 65.751C63.4092 65.904 63.3083 66.0488 63.1846 66.1855C63.0609 66.3223 62.9111 66.4329 62.7354 66.5176C62.5628 66.6055 62.3561 66.6494 62.1152 66.6494C62.0436 66.6494 61.9525 66.6396 61.8418 66.6201C61.7311 66.6006 61.653 66.5843 61.6074 66.5713L61.6025 65.8389C61.6286 65.8421 61.6693 65.8454 61.7246 65.8486C61.7832 65.8551 61.8239 65.8584 61.8467 65.8584C62.0518 65.8584 62.2259 65.8307 62.3691 65.7754C62.5124 65.7233 62.6328 65.6338 62.7305 65.5068C62.8314 65.3831 62.9176 65.2122 62.9893 64.9941L63.3652 63.9688ZM62.2861 59.2324L63.6582 63.334L63.8926 64.2861L63.2432 64.6182L61.2998 59.2324H62.2861ZM23.1602 71.4062H24.0732L26.4023 77.2021L28.7266 71.4062H29.6445L26.7539 78.5156H26.041L23.1602 71.4062ZM22.8623 71.4062H23.668L23.7998 75.7422V78.5156H22.8623V71.4062ZM29.1318 71.4062H29.9375V78.5156H29V75.7422L29.1318 71.4062ZM34.5713 77.6123V74.8926C34.5713 74.6842 34.529 74.5036 34.4443 74.3506C34.363 74.1943 34.2393 74.0739 34.0732 73.9893C33.9072 73.9046 33.7021 73.8623 33.458 73.8623C33.2301 73.8623 33.0299 73.9014 32.8574 73.9795C32.6882 74.0576 32.5547 74.1602 32.457 74.2871C32.3626 74.4141 32.3154 74.5508 32.3154 74.6973H31.4121C31.4121 74.5085 31.4609 74.3213 31.5586 74.1357C31.6562 73.9502 31.7962 73.7826 31.9785 73.6328C32.1641 73.4798 32.3854 73.3594 32.6426 73.2715C32.903 73.1803 33.1927 73.1348 33.5117 73.1348C33.8958 73.1348 34.2344 73.1999 34.5273 73.3301C34.8236 73.4603 35.0547 73.6572 35.2207 73.9209C35.39 74.1813 35.4746 74.5085 35.4746 74.9023V77.3633C35.4746 77.5391 35.4893 77.7262 35.5186 77.9248C35.5511 78.1234 35.5983 78.2943 35.6602 78.4375V78.5156H34.7178C34.6722 78.4115 34.6364 78.2731 34.6104 78.1006C34.5843 77.9248 34.5713 77.762 34.5713 77.6123ZM34.7275 75.3125L34.7373 75.9473H33.8242C33.5671 75.9473 33.3376 75.9684 33.1357 76.0107C32.9339 76.0498 32.7646 76.11 32.6279 76.1914C32.4912 76.2728 32.387 76.3753 32.3154 76.499C32.2438 76.6195 32.208 76.7611 32.208 76.9238C32.208 77.0898 32.2454 77.2412 32.3203 77.3779C32.3952 77.5146 32.5075 77.6237 32.6572 77.7051C32.8102 77.7832 32.9974 77.8223 33.2188 77.8223C33.4954 77.8223 33.7396 77.7637 33.9512 77.6465C34.1628 77.5293 34.3304 77.3861 34.4541 77.2168C34.5811 77.0475 34.6494 76.8831 34.6592 76.7236L35.0449 77.1582C35.0221 77.2949 34.9603 77.4463 34.8594 77.6123C34.7585 77.7783 34.6234 77.9378 34.4541 78.0908C34.2881 78.2406 34.0895 78.3659 33.8584 78.4668C33.6305 78.5645 33.3734 78.6133 33.0869 78.6133C32.7288 78.6133 32.4147 78.5433 32.1445 78.4033C31.8776 78.2633 31.6693 78.0762 31.5195 77.8418C31.373 77.6042 31.2998 77.3389 31.2998 77.0459C31.2998 76.7627 31.3551 76.5137 31.4658 76.2988C31.5765 76.0807 31.736 75.9001 31.9443 75.7568C32.1527 75.6104 32.4033 75.4997 32.6963 75.4248C32.9893 75.3499 33.3164 75.3125 33.6777 75.3125H34.7275ZM37.7988 74.3604V78.5156H36.8955V73.2324H37.75L37.7988 74.3604ZM37.584 75.6738L37.208 75.6592C37.2113 75.2979 37.265 74.9642 37.3691 74.6582C37.4733 74.349 37.6198 74.0804 37.8086 73.8525C37.9974 73.6247 38.222 73.4489 38.4824 73.3252C38.7461 73.1982 39.0374 73.1348 39.3564 73.1348C39.6169 73.1348 39.8512 73.1706 40.0596 73.2422C40.2679 73.3105 40.4453 73.4212 40.5918 73.5742C40.7415 73.7272 40.8555 73.9258 40.9336 74.1699C41.0117 74.4108 41.0508 74.7054 41.0508 75.0537V78.5156H40.1426V75.0439C40.1426 74.7673 40.1019 74.5459 40.0205 74.3799C39.9391 74.2106 39.8203 74.0885 39.6641 74.0137C39.5078 73.9355 39.3158 73.8965 39.0879 73.8965C38.8633 73.8965 38.6582 73.9437 38.4727 74.0381C38.2904 74.1325 38.1325 74.2627 37.999 74.4287C37.8688 74.5947 37.7663 74.7852 37.6914 75C37.6198 75.2116 37.584 75.4362 37.584 75.6738ZM45.5381 77.6123V74.8926C45.5381 74.6842 45.4958 74.5036 45.4111 74.3506C45.3298 74.1943 45.2061 74.0739 45.04 73.9893C44.874 73.9046 44.6689 73.8623 44.4248 73.8623C44.1969 73.8623 43.9967 73.9014 43.8242 73.9795C43.6549 74.0576 43.5215 74.1602 43.4238 74.2871C43.3294 74.4141 43.2822 74.5508 43.2822 74.6973H42.3789C42.3789 74.5085 42.4277 74.3213 42.5254 74.1357C42.623 73.9502 42.763 73.7826 42.9453 73.6328C43.1309 73.4798 43.3522 73.3594 43.6094 73.2715C43.8698 73.1803 44.1595 73.1348 44.4785 73.1348C44.8626 73.1348 45.2012 73.1999 45.4941 73.3301C45.7904 73.4603 46.0215 73.6572 46.1875 73.9209C46.3568 74.1813 46.4414 74.5085 46.4414 74.9023V77.3633C46.4414 77.5391 46.4561 77.7262 46.4854 77.9248C46.5179 78.1234 46.5651 78.2943 46.627 78.4375V78.5156H45.6846C45.639 78.4115 45.6032 78.2731 45.5771 78.1006C45.5511 77.9248 45.5381 77.762 45.5381 77.6123ZM45.6943 75.3125L45.7041 75.9473H44.791C44.5339 75.9473 44.3044 75.9684 44.1025 76.0107C43.9007 76.0498 43.7314 76.11 43.5947 76.1914C43.458 76.2728 43.3538 76.3753 43.2822 76.499C43.2106 76.6195 43.1748 76.7611 43.1748 76.9238C43.1748 77.0898 43.2122 77.2412 43.2871 77.3779C43.362 77.5146 43.4743 77.6237 43.624 77.7051C43.777 77.7832 43.9642 77.8223 44.1855 77.8223C44.4622 77.8223 44.7064 77.7637 44.918 77.6465C45.1296 77.5293 45.2972 77.3861 45.4209 77.2168C45.5479 77.0475 45.6162 76.8831 45.626 76.7236L46.0117 77.1582C45.9889 77.2949 45.9271 77.4463 45.8262 77.6123C45.7253 77.7783 45.5902 77.9378 45.4209 78.0908C45.2549 78.2406 45.0563 78.3659 44.8252 78.4668C44.5973 78.5645 44.3402 78.6133 44.0537 78.6133C43.6956 78.6133 43.3815 78.5433 43.1113 78.4033C42.8444 78.2633 42.6361 78.0762 42.4863 77.8418C42.3398 77.6042 42.2666 77.3389 42.2666 77.0459C42.2666 76.7627 42.3219 76.5137 42.4326 76.2988C42.5433 76.0807 42.7028 75.9001 42.9111 75.7568C43.1195 75.6104 43.3701 75.4997 43.6631 75.4248C43.9561 75.3499 44.2832 75.3125 44.6445 75.3125H45.6943ZM51.2852 73.2324H52.1055V78.4033C52.1055 78.8688 52.0111 79.266 51.8223 79.5947C51.6335 79.9235 51.3698 80.1725 51.0312 80.3418C50.696 80.5143 50.3086 80.6006 49.8691 80.6006C49.6868 80.6006 49.472 80.5713 49.2246 80.5127C48.9805 80.4574 48.7396 80.3613 48.502 80.2246C48.2676 80.0911 48.0706 79.9105 47.9111 79.6826L48.3848 79.1455C48.6061 79.4124 48.8372 79.598 49.0781 79.7021C49.3223 79.8063 49.5632 79.8584 49.8008 79.8584C50.0872 79.8584 50.3346 79.8047 50.543 79.6973C50.7513 79.5898 50.9124 79.4303 51.0264 79.2188C51.1436 79.0104 51.2021 78.7533 51.2021 78.4473V74.3945L51.2852 73.2324ZM47.6475 75.9326V75.8301C47.6475 75.4264 47.6947 75.0602 47.7891 74.7314C47.8867 74.3994 48.0251 74.1146 48.2041 73.877C48.3864 73.6393 48.6061 73.457 48.8633 73.3301C49.1204 73.1999 49.4102 73.1348 49.7324 73.1348C50.0645 73.1348 50.3542 73.1934 50.6016 73.3105C50.8522 73.4245 51.0638 73.5921 51.2363 73.8135C51.4121 74.0316 51.5505 74.2952 51.6514 74.6045C51.7523 74.9137 51.8223 75.2637 51.8613 75.6543V76.1035C51.8255 76.4909 51.7555 76.8392 51.6514 77.1484C51.5505 77.4577 51.4121 77.7214 51.2363 77.9395C51.0638 78.1576 50.8522 78.3252 50.6016 78.4424C50.3509 78.5563 50.0579 78.6133 49.7227 78.6133C49.4069 78.6133 49.1204 78.5465 48.8633 78.4131C48.6094 78.2796 48.3913 78.0924 48.209 77.8516C48.0267 77.6107 47.8867 77.3275 47.7891 77.002C47.6947 76.6732 47.6475 76.3167 47.6475 75.9326ZM48.5508 75.8301V75.9326C48.5508 76.1963 48.5768 76.4437 48.6289 76.6748C48.6842 76.9059 48.7673 77.1094 48.8779 77.2852C48.9919 77.4609 49.1367 77.5993 49.3125 77.7002C49.4883 77.7979 49.6982 77.8467 49.9424 77.8467C50.2419 77.8467 50.4893 77.7832 50.6846 77.6562C50.8799 77.5293 51.0345 77.3617 51.1484 77.1533C51.2656 76.945 51.3568 76.7188 51.4219 76.4746V75.2979C51.3861 75.1188 51.3307 74.9463 51.2559 74.7803C51.1842 74.611 51.0898 74.4613 50.9727 74.3311C50.8587 74.1976 50.7171 74.0918 50.5479 74.0137C50.3786 73.9355 50.18 73.8965 49.9521 73.8965C49.7048 73.8965 49.4915 73.9486 49.3125 74.0527C49.1367 74.1536 48.9919 74.2936 48.8779 74.4727C48.7673 74.6484 48.6842 74.8535 48.6289 75.0879C48.5768 75.319 48.5508 75.5664 48.5508 75.8301ZM55.6699 78.6133C55.3021 78.6133 54.9684 78.5514 54.6689 78.4277C54.3727 78.3008 54.1172 78.1234 53.9023 77.8955C53.6908 77.6676 53.528 77.3975 53.4141 77.085C53.3001 76.7725 53.2432 76.4307 53.2432 76.0596V75.8545C53.2432 75.4248 53.3066 75.0423 53.4336 74.707C53.5605 74.3685 53.7331 74.082 53.9512 73.8477C54.1693 73.6133 54.4167 73.4359 54.6934 73.3154C54.9701 73.195 55.2565 73.1348 55.5527 73.1348C55.9303 73.1348 56.2559 73.1999 56.5293 73.3301C56.806 73.4603 57.0322 73.6426 57.208 73.877C57.3838 74.1081 57.514 74.3815 57.5986 74.6973C57.6833 75.0098 57.7256 75.3516 57.7256 75.7227V76.1279H53.7803V75.3906H56.8223V75.3223C56.8092 75.0879 56.7604 74.86 56.6758 74.6387C56.5944 74.4173 56.4642 74.235 56.2852 74.0918C56.1061 73.9486 55.862 73.877 55.5527 73.877C55.3477 73.877 55.1589 73.9209 54.9863 74.0088C54.8138 74.0934 54.6657 74.2204 54.542 74.3896C54.4183 74.5589 54.3223 74.7656 54.2539 75.0098C54.1855 75.2539 54.1514 75.5355 54.1514 75.8545V76.0596C54.1514 76.3102 54.1855 76.5462 54.2539 76.7676C54.3255 76.9857 54.4281 77.1777 54.5615 77.3438C54.6982 77.5098 54.8626 77.64 55.0547 77.7344C55.25 77.8288 55.4714 77.876 55.7188 77.876C56.0378 77.876 56.3079 77.8109 56.5293 77.6807C56.7507 77.5505 56.9443 77.3763 57.1104 77.1582L57.6572 77.5928C57.5433 77.7653 57.3984 77.9297 57.2227 78.0859C57.0469 78.2422 56.8304 78.3691 56.5732 78.4668C56.3193 78.5645 56.0182 78.6133 55.6699 78.6133ZM59.6787 74.2822V78.5156H58.7705V73.2324H59.6299L59.6787 74.2822ZM59.4932 75.6738L59.0732 75.6592C59.0765 75.2979 59.1237 74.9642 59.2148 74.6582C59.306 74.349 59.4411 74.0804 59.6201 73.8525C59.7992 73.6247 60.0221 73.4489 60.2891 73.3252C60.556 73.1982 60.8652 73.1348 61.2168 73.1348C61.4642 73.1348 61.6921 73.1706 61.9004 73.2422C62.1087 73.3105 62.2894 73.4196 62.4424 73.5693C62.5954 73.7191 62.7142 73.9111 62.7988 74.1455C62.8835 74.3799 62.9258 74.6631 62.9258 74.9951V78.5156H62.0225V75.0391C62.0225 74.7624 61.9753 74.541 61.8809 74.375C61.7897 74.209 61.6595 74.0885 61.4902 74.0137C61.321 73.9355 61.1224 73.8965 60.8945 73.8965C60.6276 73.8965 60.4046 73.9437 60.2256 74.0381C60.0465 74.1325 59.9033 74.2627 59.7959 74.4287C59.6885 74.5947 59.6104 74.7852 59.5615 75C59.516 75.2116 59.4932 75.4362 59.4932 75.6738ZM62.916 75.1758L62.3105 75.3613C62.3138 75.0716 62.361 74.7933 62.4521 74.5264C62.5465 74.2594 62.6816 74.0218 62.8574 73.8135C63.0365 73.6051 63.2562 73.4408 63.5166 73.3203C63.777 73.1966 64.0749 73.1348 64.4102 73.1348C64.6934 73.1348 64.944 73.1722 65.1621 73.2471C65.3835 73.3219 65.569 73.4375 65.7188 73.5938C65.8717 73.7467 65.9873 73.9437 66.0654 74.1846C66.1436 74.4255 66.1826 74.7119 66.1826 75.0439V78.5156H65.2744V75.0342C65.2744 74.738 65.2272 74.5085 65.1328 74.3457C65.0417 74.1797 64.9115 74.0641 64.7422 73.999C64.5762 73.9307 64.3776 73.8965 64.1465 73.8965C63.9479 73.8965 63.7721 73.9307 63.6191 73.999C63.4661 74.0674 63.3376 74.1618 63.2334 74.2822C63.1292 74.3994 63.0495 74.5345 62.9941 74.6875C62.9421 74.8405 62.916 75.0033 62.916 75.1758ZM69.7422 78.6133C69.3743 78.6133 69.0407 78.5514 68.7412 78.4277C68.445 78.3008 68.1895 78.1234 67.9746 77.8955C67.763 77.6676 67.6003 77.3975 67.4863 77.085C67.3724 76.7725 67.3154 76.4307 67.3154 76.0596V75.8545C67.3154 75.4248 67.3789 75.0423 67.5059 74.707C67.6328 74.3685 67.8053 74.082 68.0234 73.8477C68.2415 73.6133 68.4889 73.4359 68.7656 73.3154C69.0423 73.195 69.3288 73.1348 69.625 73.1348C70.0026 73.1348 70.3281 73.1999 70.6016 73.3301C70.8783 73.4603 71.1045 73.6426 71.2803 73.877C71.4561 74.1081 71.5863 74.3815 71.6709 74.6973C71.7555 75.0098 71.7979 75.3516 71.7979 75.7227V76.1279H67.8525V75.3906H70.8945V75.3223C70.8815 75.0879 70.8327 74.86 70.748 74.6387C70.6667 74.4173 70.5365 74.235 70.3574 74.0918C70.1784 73.9486 69.9342 73.877 69.625 73.877C69.4199 73.877 69.2311 73.9209 69.0586 74.0088C68.8861 74.0934 68.738 74.2204 68.6143 74.3896C68.4906 74.5589 68.3945 74.7656 68.3262 75.0098C68.2578 75.2539 68.2236 75.5355 68.2236 75.8545V76.0596C68.2236 76.3102 68.2578 76.5462 68.3262 76.7676C68.3978 76.9857 68.5003 77.1777 68.6338 77.3438C68.7705 77.5098 68.9349 77.64 69.127 77.7344C69.3223 77.8288 69.5436 77.876 69.791 77.876C70.11 77.876 70.3802 77.8109 70.6016 77.6807C70.8229 77.5505 71.0166 77.3763 71.1826 77.1582L71.7295 77.5928C71.6156 77.7653 71.4707 77.9297 71.2949 78.0859C71.1191 78.2422 70.9027 78.3691 70.6455 78.4668C70.3916 78.5645 70.0905 78.6133 69.7422 78.6133ZM73.7559 74.3604V78.5156H72.8525V73.2324H73.707L73.7559 74.3604ZM73.541 75.6738L73.165 75.6592C73.1683 75.2979 73.222 74.9642 73.3262 74.6582C73.4303 74.349 73.5768 74.0804 73.7656 73.8525C73.9544 73.6247 74.179 73.4489 74.4395 73.3252C74.7031 73.1982 74.9945 73.1348 75.3135 73.1348C75.5739 73.1348 75.8083 73.1706 76.0166 73.2422C76.2249 73.3105 76.4023 73.4212 76.5488 73.5742C76.6986 73.7272 76.8125 73.9258 76.8906 74.1699C76.9688 74.4108 77.0078 74.7054 77.0078 75.0537V78.5156H76.0996V75.0439C76.0996 74.7673 76.0589 74.5459 75.9775 74.3799C75.8962 74.2106 75.7773 74.0885 75.6211 74.0137C75.4648 73.9355 75.2728 73.8965 75.0449 73.8965C74.8203 73.8965 74.6152 73.9437 74.4297 74.0381C74.2474 74.1325 74.0895 74.2627 73.9561 74.4287C73.8258 74.5947 73.7233 74.7852 73.6484 75C73.5768 75.2116 73.541 75.4362 73.541 75.6738ZM80.5918 73.2324V73.9258H77.7354V73.2324H80.5918ZM78.7021 71.9482H79.6055V77.207C79.6055 77.3861 79.6331 77.5212 79.6885 77.6123C79.7438 77.7035 79.8154 77.7637 79.9033 77.793C79.9912 77.8223 80.0856 77.8369 80.1865 77.8369C80.2614 77.8369 80.3395 77.8304 80.4209 77.8174C80.5055 77.8011 80.569 77.7881 80.6113 77.7783L80.6162 78.5156C80.5446 78.5384 80.4502 78.5596 80.333 78.5791C80.2191 78.6019 80.0807 78.6133 79.918 78.6133C79.6966 78.6133 79.4932 78.5693 79.3076 78.4814C79.1221 78.3936 78.974 78.2471 78.8633 78.042C78.7559 77.8337 78.7021 77.5537 78.7021 77.2021V71.9482Z" fill="black"/>
<defs>
<clipPath id="clip0_1_137">
<rect width="39" height="39" fill="white" transform="translate(32 8.51562)"/>
</clipPath>
</defs>
</svg>
